<svg xmlns="http://www.w3.org/2000/svg" xmlns:xlink="http://www.w3.org/1999/xlink" contentStyleType="text/css" data-diagram-type="CLASS" height="753px" preserveAspectRatio="none" style="width:1985px;height:753px;background:#FFFFFF;" version="1.1" viewBox="0 0 1985 753" width="1985px" zoomAndPan="magnify"><defs/><g><!--class Flyable--><g class="entity" data-entity="Flyable" data-source-line="16" data-uid="ent0002" id="entity_Flyable"><rect fill="#FFCC99" height="72.5625" rx="2.5" ry="2.5" style="stroke:#000000;stroke-width:0.5;" width="96.4082" x="7" y="492.01"/><ellipse cx="22" cy="512.1428" fill="#B4A7E5" rx="11" ry="11" style="stroke:#181818;stroke-width:1;"/><path d="M17.9219,507.9084 L17.9219,505.7522 L25.3125,505.7522 L25.3125,507.9084 L22.8438,507.9084 L22.8438,515.9866 L25.3125,515.9866 L25.3125,518.1428 L17.9219,518.1428 L17.9219,515.9866 L20.3906,515.9866 L20.3906,507.9084 L17.9219,507.9084 Z " fill="#000000"/><text fill="#000000" font-family="sans-serif" font-size="12" font-style="italic" lengthAdjust="spacing" textLength="68.4082" x="34" y="508.1487">«Interface»</text><text fill="#000000" font-family="sans-serif" font-size="14" font-style="italic" lengthAdjust="spacing" textLength="50.1963" x="43.106" y="523.9739">Flyable</text><line style="stroke:#000000;stroke-width:0.5;" x1="8" x2="102.4082" y1="532.2756" y2="532.2756"/><line style="stroke:#000000;stroke-width:0.5;" x1="8" x2="102.4082" y1="540.2756" y2="540.2756"/><ellipse cx="18" cy="553.9241" fill="#84BE84" rx="3" ry="3" style="stroke:#038048;stroke-width:1;"/><text fill="#000000" font-family="sans-serif" font-size="14" lengthAdjust="spacing" textLength="28.0273" x="27" y="557.2707">fly()</text></g><!--class Drivable--><g class="entity" data-entity="Drivable" data-source-line="20" data-uid="ent0003" id="entity_Drivable"><rect fill="#FFCC99" height="72.5625" rx="2.5" ry="2.5" style="stroke:#000000;stroke-width:0.5;" width="96.4082" x="547" y="492.01"/><ellipse cx="562" cy="512.1428" fill="#B4A7E5" rx="11" ry="11" style="stroke:#181818;stroke-width:1;"/><path d="M557.9219,507.9084 L557.9219,505.7522 L565.3125,505.7522 L565.3125,507.9084 L562.8438,507.9084 L562.8438,515.9866 L565.3125,515.9866 L565.3125,518.1428 L557.9219,518.1428 L557.9219,515.9866 L560.3906,515.9866 L560.3906,507.9084 L557.9219,507.9084 Z " fill="#000000"/><text fill="#000000" font-family="sans-serif" font-size="12" font-style="italic" lengthAdjust="spacing" textLength="68.4082" x="574" y="508.1487">«Interface»</text><text fill="#000000" font-family="sans-serif" font-size="14" font-style="italic" lengthAdjust="spacing" textLength="58.6797" x="578.8643" y="523.9739">Drivable</text><line style="stroke:#000000;stroke-width:0.5;" x1="548" x2="642.4082" y1="532.2756" y2="532.2756"/><line style="stroke:#000000;stroke-width:0.5;" x1="548" x2="642.4082" y1="540.2756" y2="540.2756"/><ellipse cx="558" cy="553.9241" fill="#84BE84" rx="3" ry="3" style="stroke:#038048;stroke-width:1;"/><text fill="#000000" font-family="sans-serif" font-size="14" lengthAdjust="spacing" textLength="46.3545" x="567" y="557.2707">drive()</text></g><!--class Floatable--><g class="entity" data-entity="Floatable" data-source-line="24" data-uid="ent0004" id="entity_Floatable"><rect fill="#FFCC99" height="72.5625" rx="2.5" ry="2.5" style="stroke:#000000;stroke-width:0.5;" width="130.5488" x="1449.93" y="492.01"/><ellipse cx="1480.2318" cy="512.1428" fill="#B4A7E5" rx="11" ry="11" style="stroke:#181818;stroke-width:1;"/><path d="M1476.1536,507.9084 L1476.1536,505.7522 L1483.5443,505.7522 L1483.5443,507.9084 L1481.0755,507.9084 L1481.0755,515.9866 L1483.5443,515.9866 L1483.5443,518.1428 L1476.1536,518.1428 L1476.1536,515.9866 L1478.6224,515.9866 L1478.6224,507.9084 L1476.1536,507.9084 Z " fill="#000000"/><text fill="#000000" font-family="sans-serif" font-size="12" font-style="italic" lengthAdjust="spacing" textLength="68.4082" x="1495.7005" y="508.1487">«Interface»</text><text fill="#000000" font-family="sans-serif" font-size="14" font-style="italic" lengthAdjust="spacing" textLength="64.5449" x="1497.6321" y="523.9739">Floatable</text><line style="stroke:#000000;stroke-width:0.5;" x1="1450.93" x2="1579.4788" y1="532.2756" y2="532.2756"/><line style="stroke:#000000;stroke-width:0.5;" x1="1450.93" x2="1579.4788" y1="540.2756" y2="540.2756"/><ellipse cx="1460.93" cy="553.9241" fill="#84BE84" rx="3" ry="3" style="stroke:#038048;stroke-width:1;"/><text fill="#000000" font-family="sans-serif" font-size="14" lengthAdjust="spacing" textLength="104.5488" x="1469.93" y="557.2707">floatOnWater()</text></g><!--class OilType--><g class="entity" data-entity="OilType" data-source-line="31" data-uid="ent0005" id="entity_OilType"><rect fill="#F1F1F1" height="145.7813" rx="2.5" ry="2.5" style="stroke:#000000;stroke-width:0.5;" width="137.6582" x="1124.38" y="72.19"/><ellipse cx="1163.0151" cy="88.19" fill="#EB937F" rx="11" ry="11" style="stroke:#181818;stroke-width:1;"/><path d="M1167.1245,94.19 L1159.4057,94.19 L1159.4057,81.7994 L1167.1245,81.7994 L1167.1245,83.9556 L1161.8589,83.9556 L1161.8589,86.6275 L1166.6245,86.6275 L1166.6245,88.7837 L1161.8589,88.7837 L1161.8589,92.0337 L1167.1245,92.0337 L1167.1245,94.19 Z " fill="#000000"/><text fill="#000000" font-family="sans-serif" font-size="14" lengthAdjust="spacing" textLength="53.1357" x="1182.2674" y="93.0367">OilType</text><line style="stroke:#000000;stroke-width:0.5;" x1="1125.38" x2="1261.0382" y1="104.19" y2="104.19"/><text fill="#000000" font-family="sans-serif" font-size="14" lengthAdjust="spacing" textLength="58.9531" x="1130.38" y="121.1851">БЕНЗИН</text><text fill="#000000" font-family="sans-serif" font-size="14" lengthAdjust="spacing" textLength="59.3633" x="1130.38" y="137.482">ДИЗЕЛЬ</text><text fill="#000000" font-family="sans-serif" font-size="14" lengthAdjust="spacing" textLength="125.6582" x="1130.38" y="153.7789">ЭЛЕКТРИЧЕСКИЙ</text><text fill="#000000" font-family="sans-serif" font-size="14" lengthAdjust="spacing" textLength="91.8203" x="1130.38" y="170.0757">ГИБРИДНЫЙ</text><text fill="#000000" font-family="sans-serif" font-size="14" lengthAdjust="spacing" textLength="69.0225" x="1130.38" y="186.3726">КЕРОСИН</text><text fill="#000000" font-family="sans-serif" font-size="14" lengthAdjust="spacing" textLength="27.9248" x="1130.38" y="202.6695">НЕТ</text><line style="stroke:#000000;stroke-width:0.5;" x1="1125.38" x2="1261.0382" y1="209.9712" y2="209.9712"/></g><!--class EngineType--><g class="entity" data-entity="EngineType" data-source-line="40" data-uid="ent0006" id="entity_EngineType"><rect fill="#F1F1F1" height="113.1875" rx="2.5" ry="2.5" style="stroke:#000000;stroke-width:0.5;" width="165.7607" x="1297.32" y="88.48"/><ellipse cx="1335.4691" cy="104.48" fill="#EB937F" rx="11" ry="11" style="stroke:#181818;stroke-width:1;"/><path d="M1339.5784,110.48 L1331.8597,110.48 L1331.8597,98.0894 L1339.5784,98.0894 L1339.5784,100.2456 L1334.3128,100.2456 L1334.3128,102.9175 L1339.0784,102.9175 L1339.0784,105.0738 L1334.3128,105.0738 L1334.3128,108.3238 L1339.5784,108.3238 L1339.5784,110.48 Z " fill="#000000"/><text fill="#000000" font-family="sans-serif" font-size="14" lengthAdjust="spacing" textLength="82.3184" x="1354.6133" y="109.3267">EngineType</text><line style="stroke:#000000;stroke-width:0.5;" x1="1298.32" x2="1462.0807" y1="120.48" y2="120.48"/><text fill="#000000" font-family="sans-serif" font-size="14" lengthAdjust="spacing" textLength="30.3174" x="1303.32" y="137.4751">ДВС</text><text fill="#000000" font-family="sans-serif" font-size="14" lengthAdjust="spacing" textLength="98.7861" x="1303.32" y="153.772">РЕАКТИВНЫЙ</text><text fill="#000000" font-family="sans-serif" font-size="14" lengthAdjust="spacing" textLength="153.7607" x="1303.32" y="170.0689">ЭЛЕКТРОДВИГАТЕЛЬ</text><text fill="#000000" font-family="sans-serif" font-size="14" lengthAdjust="spacing" textLength="27.9248" x="1303.32" y="186.3657">НЕТ</text><line style="stroke:#000000;stroke-width:0.5;" x1="1298.32" x2="1462.0807" y1="193.6675" y2="193.6675"/></g><!--class Vehicles--><g class="entity" data-entity="Vehicles" data-source-line="50" data-uid="ent0007" id="entity_Vehicles"><rect fill="#F1F1F1" height="276.1563" rx="2.5" ry="2.5" style="stroke:#000000;stroke-width:0.5;" width="233.7168" x="855.35" y="7"/><ellipse cx="938.7348" cy="23" fill="#A9DCDF" rx="11" ry="11" style="stroke:#181818;stroke-width:1;"/><path d="M938.8441,18.3438 L937.6879,23.4219 L940.016,23.4219 L938.8441,18.3438 Z M937.3598,16.1094 L940.3441,16.1094 L943.7035,28.5 L941.2504,28.5 L940.4848,25.4375 L937.2035,25.4375 L936.4535,28.5 L934.016,28.5 L937.3598,16.1094 Z " fill="#000000"/><text fill="#000000" font-family="sans-serif" font-size="14" font-style="italic" lengthAdjust="spacing" textLength="58.4473" x="959.2348" y="27.8467">Vehicles</text><line style="stroke:#000000;stroke-width:0.5;" x1="856.35" x2="1088.0668" y1="39" y2="39"/><rect fill="none" height="6" style="stroke:#C82930;stroke-width:1;" width="6" x="863.35" y="49.6484"/><text fill="#000000" font-family="sans-serif" font-size="14" lengthAdjust="spacing" textLength="90.6514" x="875.35" y="55.9951">name: String</text><rect fill="none" height="6" style="stroke:#C82930;stroke-width:1;" width="6" x="863.35" y="65.9453"/><text fill="#000000" font-family="sans-serif" font-size="14" lengthAdjust="spacing" textLength="112.9844" x="875.35" y="72.292">oilType: OilType</text><rect fill="none" height="6" style="stroke:#C82930;stroke-width:1;" width="6" x="863.35" y="82.2422"/><text fill="#000000" font-family="sans-serif" font-size="14" lengthAdjust="spacing" textLength="173.5713" x="875.35" y="88.5889">engineType: EngineType</text><rect fill="none" height="6" style="stroke:#C82930;stroke-width:1;" width="6" x="863.35" y="98.5391"/><text fill="#000000" font-family="sans-serif" font-size="14" lengthAdjust="spacing" textLength="133.916" x="875.35" y="104.8857">maxSpeed: Integer</text><line style="stroke:#000000;stroke-width:0.5;" x1="856.35" x2="1088.0668" y1="112.1875" y2="112.1875"/><ellipse cx="866.35" cy="125.8359" fill="#84BE84" rx="3" ry="3" style="stroke:#038048;stroke-width:1;"/><text fill="#000000" font-family="sans-serif" font-size="14" lengthAdjust="spacing" textLength="126.1641" x="875.35" y="129.1826">getName(): String</text><ellipse cx="866.35" cy="142.1328" fill="#84BE84" rx="3" ry="3" style="stroke:#038048;stroke-width:1;"/><text fill="#000000" font-family="sans-serif" font-size="14" lengthAdjust="spacing" textLength="138.5918" x="875.35" y="145.4795">setOilType(OilType)</text><ellipse cx="866.35" cy="158.4297" fill="#84BE84" rx="3" ry="3" style="stroke:#038048;stroke-width:1;"/><text fill="#000000" font-family="sans-serif" font-size="14" lengthAdjust="spacing" textLength="149.3516" x="875.35" y="161.7764">getOilType(): OilType</text><ellipse cx="866.35" cy="174.7266" fill="#84BE84" rx="3" ry="3" style="stroke:#038048;stroke-width:1;"/><text fill="#000000" font-family="sans-serif" font-size="14" lengthAdjust="spacing" textLength="196.957" x="875.35" y="178.0732">setEngineType(EngineType)</text><ellipse cx="866.35" cy="191.0234" fill="#84BE84" rx="3" ry="3" style="stroke:#038048;stroke-width:1;"/><text fill="#000000" font-family="sans-serif" font-size="14" lengthAdjust="spacing" textLength="207.7168" x="875.35" y="194.3701">getEngineType(): EngineType</text><ellipse cx="866.35" cy="207.3203" fill="#84BE84" rx="3" ry="3" style="stroke:#038048;stroke-width:1;"/><text fill="#000000" font-family="sans-serif" font-size="14" lengthAdjust="spacing" textLength="155.5107" x="875.35" y="210.667">setMaxSpeed(Integer)</text><ellipse cx="866.35" cy="223.6172" fill="#84BE84" rx="3" ry="3" style="stroke:#038048;stroke-width:1;"/><text fill="#000000" font-family="sans-serif" font-size="14" lengthAdjust="spacing" textLength="166.2705" x="875.35" y="226.9639">getMaxSpeed(): Integer</text><ellipse cx="866.35" cy="239.9141" fill="#84BE84" rx="3" ry="3" style="stroke:#038048;stroke-width:1;"/><text fill="#000000" font-family="sans-serif" font-size="14" lengthAdjust="spacing" textLength="70.3145" x="875.35" y="243.2607">printInfo()</text><polygon fill="#FFFF44" points="866.35,251.2109,870.35,255.2109,866.35,259.2109,862.35,255.2109" style="stroke:#B38D22;stroke-width:1;"/><text fill="#000000" font-family="sans-serif" font-size="14" lengthAdjust="spacing" textLength="124.8037" x="875.35" y="259.5576">printSpecificInfo()</text><ellipse cx="866.35" cy="272.5078" fill="#84BE84" rx="3" ry="3" style="stroke:#038048;stroke-width:1;"/><text fill="#000000" font-family="sans-serif" font-size="14" lengthAdjust="spacing" textLength="117.708" x="875.35" y="275.8545">toString(): String</text></g><!--class Flying--><g class="entity" data-entity="Flying" data-source-line="70" data-uid="ent0008" id="entity_Flying"><rect fill="#CCFFCC" height="72.5625" rx="2.5" ry="2.5" style="stroke:#000000;stroke-width:0.5;" width="78.5781" x="294.92" y="343.16"/><ellipse cx="309.92" cy="363.2928" fill="#A9DCDF" rx="11" ry="11" style="stroke:#181818;stroke-width:1;"/><path d="M310.0294,358.6366 L308.8731,363.7147 L311.2013,363.7147 L310.0294,358.6366 Z M308.545,356.4022 L311.5294,356.4022 L314.8888,368.7928 L312.4356,368.7928 L311.67,365.7303 L308.3888,365.7303 L307.6388,368.7928 L305.2013,368.7928 L308.545,356.4022 Z " fill="#000000"/><text fill="#000000" font-family="sans-serif" font-size="12" font-style="italic" lengthAdjust="spacing" textLength="50.5781" x="321.92" y="359.2987">«Flying»</text><text fill="#000000" font-family="sans-serif" font-size="14" font-style="italic" lengthAdjust="spacing" textLength="41.877" x="326.2706" y="375.1239">Flying</text><line style="stroke:#000000;stroke-width:0.5;" x1="295.92" x2="372.4981" y1="383.4256" y2="383.4256"/><line style="stroke:#000000;stroke-width:0.5;" x1="295.92" x2="372.4981" y1="391.4256" y2="391.4256"/><ellipse cx="305.92" cy="405.0741" fill="#84BE84" rx="3" ry="3" style="stroke:#038048;stroke-width:1;"/><text fill="#000000" font-family="sans-serif" font-size="14" lengthAdjust="spacing" textLength="28.0273" x="314.92" y="408.4207">fly()</text></g><!--class Plane--><g class="entity" data-entity="Plane" data-source-line="76" data-uid="ent0011" id="entity_Plane"><rect fill="#CCFFCC" height="105.1563" rx="2.5" ry="2.5" style="stroke:#000000;stroke-width:0.5;" width="187.3965" x="138.51" y="475.72"/><ellipse cx="204.6692" cy="495.8528" fill="#ADD1B2" rx="11" ry="11" style="stroke:#181818;stroke-width:1;"/><path d="M207.6379,501.4934 Q207.0598,501.7903 206.4192,501.9309 Q205.7786,502.0872 205.0754,502.0872 Q202.5754,502.0872 201.2473,500.4466 Q199.9348,498.7903 199.9348,495.6653 Q199.9348,492.5403 201.2473,490.8841 Q202.5754,489.2278 205.0754,489.2278 Q205.7786,489.2278 206.4192,489.3841 Q207.0754,489.5403 207.6379,489.8372 L207.6379,492.5559 Q207.0129,491.9778 206.4192,491.7122 Q205.8254,491.4309 205.2004,491.4309 Q203.8567,491.4309 203.1692,492.5091 Q202.4817,493.5716 202.4817,495.6653 Q202.4817,497.7591 203.1692,498.8372 Q203.8567,499.8997 205.2004,499.8997 Q205.8254,499.8997 206.4192,499.6341 Q207.0129,499.3528 207.6379,498.7747 L207.6379,501.4934 Z " fill="#000000"/><text fill="#000000" font-family="sans-serif" font-size="12" font-style="italic" lengthAdjust="spacing" textLength="50.5781" x="223.1692" y="491.8587">«Flying»</text><text fill="#000000" font-family="sans-serif" font-size="14" lengthAdjust="spacing" textLength="38.3975" x="229.2595" y="507.6839">Plane</text><line style="stroke:#000000;stroke-width:0.5;" x1="139.51" x2="324.9065" y1="515.9856" y2="515.9856"/><rect fill="none" height="6" style="stroke:#C82930;stroke-width:1;" width="6" x="146.51" y="526.6341"/><text fill="#000000" font-family="sans-serif" font-size="14" lengthAdjust="spacing" textLength="161.3965" x="158.51" y="532.9807">passengerCapacity: int</text><line style="stroke:#000000;stroke-width:0.5;" x1="139.51" x2="324.9065" y1="540.2825" y2="540.2825"/><ellipse cx="149.51" cy="553.9309" fill="#84BE84" rx="3" ry="3" style="stroke:#038048;stroke-width:1;"/><text fill="#000000" font-family="sans-serif" font-size="14" lengthAdjust="spacing" textLength="28.0273" x="158.51" y="557.2776">fly()</text><polygon fill="#FFFF44" points="149.51,565.2278,153.51,569.2278,149.51,573.2278,145.51,569.2278" style="stroke:#B38D22;stroke-width:1;"/><text fill="#000000" font-family="sans-serif" font-size="14" lengthAdjust="spacing" textLength="124.8037" x="158.51" y="573.5745">printSpecificInfo()</text></g><!--class Helicopter--><g class="entity" data-entity="Helicopter" data-source-line="83" data-uid="ent0013" id="entity_Helicopter"><rect fill="#CCFFCC" height="105.1563" rx="2.5" ry="2.5" style="stroke:#000000;stroke-width:0.5;" width="150.8037" x="360.8" y="475.72"/><ellipse cx="396.8942" cy="495.8528" fill="#ADD1B2" rx="11" ry="11" style="stroke:#181818;stroke-width:1;"/><path d="M399.8629,501.4934 Q399.2848,501.7903 398.6442,501.9309 Q398.0036,502.0872 397.3004,502.0872 Q394.8004,502.0872 393.4723,500.4466 Q392.1598,498.7903 392.1598,495.6653 Q392.1598,492.5403 393.4723,490.8841 Q394.8004,489.2278 397.3004,489.2278 Q398.0036,489.2278 398.6442,489.3841 Q399.3004,489.5403 399.8629,489.8372 L399.8629,492.5559 Q399.2379,491.9778 398.6442,491.7122 Q398.0504,491.4309 397.4254,491.4309 Q396.0817,491.4309 395.3942,492.5091 Q394.7067,493.5716 394.7067,495.6653 Q394.7067,497.7591 395.3942,498.8372 Q396.0817,499.8997 397.4254,499.8997 Q398.0504,499.8997 398.6442,499.6341 Q399.2379,499.3528 399.8629,498.7747 L399.8629,501.4934 Z " fill="#000000"/><text fill="#000000" font-family="sans-serif" font-size="12" font-style="italic" lengthAdjust="spacing" textLength="50.5781" x="426.2566" y="491.8587">«Flying»</text><text fill="#000000" font-family="sans-serif" font-size="14" lengthAdjust="spacing" textLength="71.9277" x="415.5818" y="507.6839">Helicopter</text><line style="stroke:#000000;stroke-width:0.5;" x1="361.8" x2="510.6037" y1="515.9856" y2="515.9856"/><rect fill="none" height="6" style="stroke:#C82930;stroke-width:1;" width="6" x="368.8" y="526.6341"/><text fill="#000000" font-family="sans-serif" font-size="14" lengthAdjust="spacing" textLength="73.5684" x="380.8" y="532.9807">blades: int</text><line style="stroke:#000000;stroke-width:0.5;" x1="361.8" x2="510.6037" y1="540.2825" y2="540.2825"/><ellipse cx="371.8" cy="553.9309" fill="#84BE84" rx="3" ry="3" style="stroke:#038048;stroke-width:1;"/><text fill="#000000" font-family="sans-serif" font-size="14" lengthAdjust="spacing" textLength="28.0273" x="380.8" y="557.2776">fly()</text><polygon fill="#FFFF44" points="371.8,565.2278,375.8,569.2278,371.8,573.2278,367.8,569.2278" style="stroke:#B38D22;stroke-width:1;"/><text fill="#000000" font-family="sans-serif" font-size="14" lengthAdjust="spacing" textLength="124.8037" x="380.8" y="573.5745">printSpecificInfo()</text></g><!--class GroundBased--><g class="entity" data-entity="GroundBased" data-source-line="93" data-uid="ent0015" id="entity_GroundBased"><rect fill="#CCE0FF" height="72.5625" rx="2.5" ry="2.5" style="stroke:#000000;stroke-width:0.5;" width="126.7803" x="908.81" y="343.16"/><ellipse cx="923.81" cy="363.2928" fill="#A9DCDF" rx="11" ry="11" style="stroke:#181818;stroke-width:1;"/><path d="M923.9194,358.6366 L922.7631,363.7147 L925.0913,363.7147 L923.9194,358.6366 Z M922.435,356.4022 L925.4194,356.4022 L928.7788,368.7928 L926.3256,368.7928 L925.56,365.7303 L922.2788,365.7303 L921.5288,368.7928 L919.0913,368.7928 L922.435,356.4022 Z " fill="#000000"/><text fill="#000000" font-family="sans-serif" font-size="12" font-style="italic" lengthAdjust="spacing" textLength="95.9238" x="937.2382" y="359.2987">«GroundBased»</text><text fill="#000000" font-family="sans-serif" font-size="14" font-style="italic" lengthAdjust="spacing" textLength="94.7803" x="937.81" y="375.1239">GroundBased</text><line style="stroke:#000000;stroke-width:0.5;" x1="909.81" x2="1034.5903" y1="383.4256" y2="383.4256"/><line style="stroke:#000000;stroke-width:0.5;" x1="909.81" x2="1034.5903" y1="391.4256" y2="391.4256"/><ellipse cx="919.81" cy="405.0741" fill="#84BE84" rx="3" ry="3" style="stroke:#038048;stroke-width:1;"/><text fill="#000000" font-family="sans-serif" font-size="14" lengthAdjust="spacing" textLength="46.3545" x="928.81" y="408.4207">drive()</text></g><!--class Car--><g class="entity" data-entity="Car" data-source-line="99" data-uid="ent0018" id="entity_Car"><rect fill="#CCE0FF" height="105.1563" rx="2.5" ry="2.5" style="stroke:#000000;stroke-width:0.5;" width="150.8037" x="678.8" y="475.72"/><ellipse cx="705.8959" cy="495.8528" fill="#ADD1B2" rx="11" ry="11" style="stroke:#181818;stroke-width:1;"/><path d="M708.8647,501.4934 Q708.2866,501.7903 707.6459,501.9309 Q707.0053,502.0872 706.3022,502.0872 Q703.8022,502.0872 702.4741,500.4466 Q701.1616,498.7903 701.1616,495.6653 Q701.1616,492.5403 702.4741,490.8841 Q703.8022,489.2278 706.3022,489.2278 Q707.0053,489.2278 707.6459,489.3841 Q708.3022,489.5403 708.8647,489.8372 L708.8647,492.5559 Q708.2397,491.9778 707.6459,491.7122 Q707.0522,491.4309 706.4272,491.4309 Q705.0834,491.4309 704.3959,492.5091 Q703.7084,493.5716 703.7084,495.6653 Q703.7084,497.7591 704.3959,498.8372 Q705.0834,499.8997 706.4272,499.8997 Q707.0522,499.8997 707.6459,499.6341 Q708.2397,499.3528 708.8647,498.7747 L708.8647,501.4934 Z " fill="#000000"/><text fill="#000000" font-family="sans-serif" font-size="12" font-style="italic" lengthAdjust="spacing" textLength="95.9238" x="720.5839" y="491.8587">«GroundBased»</text><text fill="#000000" font-family="sans-serif" font-size="14" lengthAdjust="spacing" textLength="24.1104" x="756.4907" y="507.6839">Car</text><line style="stroke:#000000;stroke-width:0.5;" x1="679.8" x2="828.6037" y1="515.9856" y2="515.9856"/><rect fill="none" height="6" style="stroke:#C82930;stroke-width:1;" width="6" x="686.8" y="526.6341"/><text fill="#000000" font-family="sans-serif" font-size="14" lengthAdjust="spacing" textLength="66.4863" x="698.8" y="532.9807">doors: int</text><line style="stroke:#000000;stroke-width:0.5;" x1="679.8" x2="828.6037" y1="540.2825" y2="540.2825"/><ellipse cx="689.8" cy="553.9309" fill="#84BE84" rx="3" ry="3" style="stroke:#038048;stroke-width:1;"/><text fill="#000000" font-family="sans-serif" font-size="14" lengthAdjust="spacing" textLength="46.3545" x="698.8" y="557.2776">drive()</text><polygon fill="#FFFF44" points="689.8,565.2278,693.8,569.2278,689.8,573.2278,685.8,569.2278" style="stroke:#B38D22;stroke-width:1;"/><text fill="#000000" font-family="sans-serif" font-size="14" lengthAdjust="spacing" textLength="124.8037" x="698.8" y="573.5745">printSpecificInfo()</text></g><!--class Bike--><g class="entity" data-entity="Bike" data-source-line="106" data-uid="ent0020" id="entity_Bike"><rect fill="#CCE0FF" height="105.1563" rx="2.5" ry="2.5" style="stroke:#000000;stroke-width:0.5;" width="215.7451" x="864.33" y="475.72"/><ellipse cx="921.9906" cy="495.8528" fill="#ADD1B2" rx="11" ry="11" style="stroke:#181818;stroke-width:1;"/><path d="M924.9594,501.4934 Q924.3813,501.7903 923.7406,501.9309 Q923.1,502.0872 922.3969,502.0872 Q919.8969,502.0872 918.5688,500.4466 Q917.2563,498.7903 917.2563,495.6653 Q917.2563,492.5403 918.5688,490.8841 Q919.8969,489.2278 922.3969,489.2278 Q923.1,489.2278 923.7406,489.3841 Q924.3969,489.5403 924.9594,489.8372 L924.9594,492.5559 Q924.3344,491.9778 923.7406,491.7122 Q923.1469,491.4309 922.5219,491.4309 Q921.1781,491.4309 920.4906,492.5091 Q919.8031,493.5716 919.8031,495.6653 Q919.8031,497.7591 920.4906,498.8372 Q921.1781,499.8997 922.5219,499.8997 Q923.1469,499.8997 923.7406,499.6341 Q924.3344,499.3528 924.9594,498.7747 L924.9594,501.4934 Z " fill="#000000"/><text fill="#000000" font-family="sans-serif" font-size="12" font-style="italic" lengthAdjust="spacing" textLength="95.9238" x="940.4906" y="491.8587">«GroundBased»</text><text fill="#000000" font-family="sans-serif" font-size="14" lengthAdjust="spacing" textLength="30.2148" x="973.3451" y="507.6839">Bike</text><line style="stroke:#000000;stroke-width:0.5;" x1="865.33" x2="1079.0751" y1="515.9856" y2="515.9856"/><rect fill="none" height="6" style="stroke:#C82930;stroke-width:1;" width="6" x="872.33" y="526.6341"/><text fill="#000000" font-family="sans-serif" font-size="14" lengthAdjust="spacing" textLength="189.7451" x="884.33" y="532.9807">hasElectricEngine: boolean</text><line style="stroke:#000000;stroke-width:0.5;" x1="865.33" x2="1079.0751" y1="540.2825" y2="540.2825"/><ellipse cx="875.33" cy="553.9309" fill="#84BE84" rx="3" ry="3" style="stroke:#038048;stroke-width:1;"/><text fill="#000000" font-family="sans-serif" font-size="14" lengthAdjust="spacing" textLength="46.3545" x="884.33" y="557.2776">drive()</text><polygon fill="#FFFF44" points="875.33,565.2278,879.33,569.2278,875.33,573.2278,871.33,569.2278" style="stroke:#B38D22;stroke-width:1;"/><text fill="#000000" font-family="sans-serif" font-size="14" lengthAdjust="spacing" textLength="124.8037" x="884.33" y="573.5745">printSpecificInfo()</text></g><!--class Bicycle--><g class="entity" data-entity="Bicycle" data-source-line="113" data-uid="ent0022" id="entity_Bicycle"><rect fill="#CCE0FF" height="105.1563" rx="2.5" ry="2.5" style="stroke:#000000;stroke-width:0.5;" width="156.9766" x="1114.72" y="475.72"/><ellipse cx="1144.5937" cy="495.8528" fill="#ADD1B2" rx="11" ry="11" style="stroke:#181818;stroke-width:1;"/><path d="M1147.5625,501.4934 Q1146.9844,501.7903 1146.3437,501.9309 Q1145.7031,502.0872 1145,502.0872 Q1142.5,502.0872 1141.1719,500.4466 Q1139.8594,498.7903 1139.8594,495.6653 Q1139.8594,492.5403 1141.1719,490.8841 Q1142.5,489.2278 1145,489.2278 Q1145.7031,489.2278 1146.3437,489.3841 Q1147,489.5403 1147.5625,489.8372 L1147.5625,492.5559 Q1146.9375,491.9778 1146.3437,491.7122 Q1145.75,491.4309 1145.125,491.4309 Q1143.7812,491.4309 1143.0937,492.5091 Q1142.4062,493.5716 1142.4062,495.6653 Q1142.4062,497.7591 1143.0937,498.8372 Q1143.7812,499.8997 1145.125,499.8997 Q1145.75,499.8997 1146.3437,499.6341 Q1146.9375,499.3528 1147.5625,498.7747 L1147.5625,501.4934 Z " fill="#000000"/><text fill="#000000" font-family="sans-serif" font-size="12" font-style="italic" lengthAdjust="spacing" textLength="95.9238" x="1159.899" y="491.8587">«GroundBased»</text><text fill="#000000" font-family="sans-serif" font-size="14" lengthAdjust="spacing" textLength="49.6768" x="1183.0225" y="507.6839">Bicycle</text><line style="stroke:#000000;stroke-width:0.5;" x1="1115.72" x2="1270.6966" y1="515.9856" y2="515.9856"/><rect fill="none" height="6" style="stroke:#C82930;stroke-width:1;" width="6" x="1122.72" y="526.6341"/><text fill="#000000" font-family="sans-serif" font-size="14" lengthAdjust="spacing" textLength="130.9766" x="1134.72" y="532.9807">hasGears: boolean</text><line style="stroke:#000000;stroke-width:0.5;" x1="1115.72" x2="1270.6966" y1="540.2825" y2="540.2825"/><ellipse cx="1125.72" cy="553.9309" fill="#84BE84" rx="3" ry="3" style="stroke:#038048;stroke-width:1;"/><text fill="#000000" font-family="sans-serif" font-size="14" lengthAdjust="spacing" textLength="46.3545" x="1134.72" y="557.2776">drive()</text><polygon fill="#FFFF44" points="1125.72,565.2278,1129.72,569.2278,1125.72,573.2278,1121.72,569.2278" style="stroke:#B38D22;stroke-width:1;"/><text fill="#000000" font-family="sans-serif" font-size="14" lengthAdjust="spacing" textLength="124.8037" x="1134.72" y="573.5745">printSpecificInfo()</text></g><!--class RailsBased--><g class="entity" data-entity="RailsBased" data-source-line="123" data-uid="ent0024" id="entity_RailsBased"><rect fill="#99CCFF" height="72.5625" rx="2.5" ry="2.5" style="stroke:#000000;stroke-width:0.5;" width="108.3574" x="1307.03" y="492.01"/><ellipse cx="1322.03" cy="512.1428" fill="#A9DCDF" rx="11" ry="11" style="stroke:#181818;stroke-width:1;"/><path d="M1322.1394,507.4866 L1320.9831,512.5647 L1323.3113,512.5647 L1322.1394,507.4866 Z M1320.655,505.2522 L1323.6394,505.2522 L1326.9988,517.6428 L1324.5456,517.6428 L1323.78,514.5803 L1320.4988,514.5803 L1319.7488,517.6428 L1317.3113,517.6428 L1320.655,505.2522 Z " fill="#000000"/><text fill="#000000" font-family="sans-serif" font-size="12" font-style="italic" lengthAdjust="spacing" textLength="80.1328" x="1334.1423" y="508.1487">«RailsBased»</text><text fill="#000000" font-family="sans-serif" font-size="14" font-style="italic" lengthAdjust="spacing" textLength="76.3574" x="1336.03" y="523.9739">RailsBased</text><line style="stroke:#000000;stroke-width:0.5;" x1="1308.03" x2="1414.3874" y1="532.2756" y2="532.2756"/><line style="stroke:#000000;stroke-width:0.5;" x1="1308.03" x2="1414.3874" y1="540.2756" y2="540.2756"/><ellipse cx="1318.03" cy="553.9241" fill="#84BE84" rx="3" ry="3" style="stroke:#038048;stroke-width:1;"/><text fill="#000000" font-family="sans-serif" font-size="14" lengthAdjust="spacing" textLength="46.3545" x="1327.03" y="557.2707">drive()</text></g><!--class Train--><g class="entity" data-entity="Train" data-source-line="128" data-uid="ent0026" id="entity_Train"><rect fill="#99CCFF" height="105.1563" rx="2.5" ry="2.5" style="stroke:#000000;stroke-width:0.5;" width="150.8037" x="1192.8" y="640.87"/><ellipse cx="1227.0019" cy="661.0028" fill="#ADD1B2" rx="11" ry="11" style="stroke:#181818;stroke-width:1;"/><path d="M1229.9707,666.6434 Q1229.3925,666.9403 1228.7519,667.0809 Q1228.1113,667.2372 1227.4082,667.2372 Q1224.9082,667.2372 1223.58,665.5966 Q1222.2675,663.9403 1222.2675,660.8153 Q1222.2675,657.6903 1223.58,656.0341 Q1224.9082,654.3778 1227.4082,654.3778 Q1228.1113,654.3778 1228.7519,654.5341 Q1229.4082,654.6903 1229.9707,654.9872 L1229.9707,657.7059 Q1229.3457,657.1278 1228.7519,656.8622 Q1228.1582,656.5809 1227.5332,656.5809 Q1226.1894,656.5809 1225.5019,657.6591 Q1224.8144,658.7216 1224.8144,660.8153 Q1224.8144,662.9091 1225.5019,663.9872 Q1226.1894,665.0497 1227.5332,665.0497 Q1228.1582,665.0497 1228.7519,664.7841 Q1229.3457,664.5028 1229.9707,663.9247 L1229.9707,666.6434 Z " fill="#000000"/><text fill="#000000" font-family="sans-serif" font-size="12" font-style="italic" lengthAdjust="spacing" textLength="80.1328" x="1243.269" y="657.0087">«RailsBased»</text><text fill="#000000" font-family="sans-serif" font-size="14" lengthAdjust="spacing" textLength="35.6494" x="1265.5107" y="672.8339">Train</text><line style="stroke:#000000;stroke-width:0.5;" x1="1193.8" x2="1342.6037" y1="681.1356" y2="681.1356"/><rect fill="none" height="6" style="stroke:#C82930;stroke-width:1;" width="6" x="1200.8" y="691.7841"/><text fill="#000000" font-family="sans-serif" font-size="14" lengthAdjust="spacing" textLength="81.0674" x="1212.8" y="698.1307">wagons: int</text><line style="stroke:#000000;stroke-width:0.5;" x1="1193.8" x2="1342.6037" y1="705.4325" y2="705.4325"/><ellipse cx="1203.8" cy="719.0809" fill="#84BE84" rx="3" ry="3" style="stroke:#038048;stroke-width:1;"/><text fill="#000000" font-family="sans-serif" font-size="14" lengthAdjust="spacing" textLength="46.3545" x="1212.8" y="722.4276">drive()</text><polygon fill="#FFFF44" points="1203.8,730.3778,1207.8,734.3778,1203.8,738.3778,1199.8,734.3778" style="stroke:#B38D22;stroke-width:1;"/><text fill="#000000" font-family="sans-serif" font-size="14" lengthAdjust="spacing" textLength="124.8037" x="1212.8" y="738.7245">printSpecificInfo()</text></g><!--class Subway--><g class="entity" data-entity="Subway" data-source-line="135" data-uid="ent0028" id="entity_Subway"><rect fill="#99CCFF" height="105.1563" rx="2.5" ry="2.5" style="stroke:#000000;stroke-width:0.5;" width="150.8037" x="1378.8" y="640.87"/><ellipse cx="1413.0019" cy="661.0028" fill="#ADD1B2" rx="11" ry="11" style="stroke:#181818;stroke-width:1;"/><path d="M1415.9707,666.6434 Q1415.3925,666.9403 1414.7519,667.0809 Q1414.1113,667.2372 1413.4082,667.2372 Q1410.9082,667.2372 1409.58,665.5966 Q1408.2675,663.9403 1408.2675,660.8153 Q1408.2675,657.6903 1409.58,656.0341 Q1410.9082,654.3778 1413.4082,654.3778 Q1414.1113,654.3778 1414.7519,654.5341 Q1415.4082,654.6903 1415.9707,654.9872 L1415.9707,657.7059 Q1415.3457,657.1278 1414.7519,656.8622 Q1414.1582,656.5809 1413.5332,656.5809 Q1412.1894,656.5809 1411.5019,657.6591 Q1410.8144,658.7216 1410.8144,660.8153 Q1410.8144,662.9091 1411.5019,663.9872 Q1412.1894,665.0497 1413.5332,665.0497 Q1414.1582,665.0497 1414.7519,664.7841 Q1415.3457,664.5028 1415.9707,663.9247 L1415.9707,666.6434 Z " fill="#000000"/><text fill="#000000" font-family="sans-serif" font-size="12" font-style="italic" lengthAdjust="spacing" textLength="80.1328" x="1429.269" y="657.0087">«RailsBased»</text><text fill="#000000" font-family="sans-serif" font-size="14" lengthAdjust="spacing" textLength="54.9609" x="1441.8549" y="672.8339">Subway</text><line style="stroke:#000000;stroke-width:0.5;" x1="1379.8" x2="1528.6037" y1="681.1356" y2="681.1356"/><rect fill="none" height="6" style="stroke:#C82930;stroke-width:1;" width="6" x="1386.8" y="691.7841"/><text fill="#000000" font-family="sans-serif" font-size="14" lengthAdjust="spacing" textLength="82.8926" x="1398.8" y="698.1307">stations: int</text><line style="stroke:#000000;stroke-width:0.5;" x1="1379.8" x2="1528.6037" y1="705.4325" y2="705.4325"/><ellipse cx="1389.8" cy="719.0809" fill="#84BE84" rx="3" ry="3" style="stroke:#038048;stroke-width:1;"/><text fill="#000000" font-family="sans-serif" font-size="14" lengthAdjust="spacing" textLength="46.3545" x="1398.8" y="722.4276">drive()</text><polygon fill="#FFFF44" points="1389.8,730.3778,1393.8,734.3778,1389.8,738.3778,1385.8,734.3778" style="stroke:#B38D22;stroke-width:1;"/><text fill="#000000" font-family="sans-serif" font-size="14" lengthAdjust="spacing" textLength="124.8037" x="1398.8" y="738.7245">printSpecificInfo()</text></g><!--class WaterBased--><g class="entity" data-entity="WaterBased" data-source-line="145" data-uid="ent0030" id="entity_WaterBased"><rect fill="#FFE0CC" height="72.5625" rx="2.5" ry="2.5" style="stroke:#000000;stroke-width:0.5;" width="130.5488" x="1543.93" y="343.16"/><ellipse cx="1564.911" cy="363.2928" fill="#A9DCDF" rx="11" ry="11" style="stroke:#181818;stroke-width:1;"/><path d="M1565.0203,358.6366 L1563.8641,363.7147 L1566.1922,363.7147 L1565.0203,358.6366 Z M1563.536,356.4022 L1566.5203,356.4022 L1569.8797,368.7928 L1567.4266,368.7928 L1566.661,365.7303 L1563.3797,365.7303 L1562.6297,368.7928 L1560.1922,368.7928 L1563.536,356.4022 Z " fill="#000000"/><text fill="#000000" font-family="sans-serif" font-size="12" font-style="italic" lengthAdjust="spacing" textLength="87.7617" x="1578.9881" y="359.2987">«WaterBased»</text><text fill="#000000" font-family="sans-serif" font-size="14" font-style="italic" lengthAdjust="spacing" textLength="85.2578" x="1580.2401" y="375.1239">WaterBased</text><line style="stroke:#000000;stroke-width:0.5;" x1="1544.93" x2="1673.4788" y1="383.4256" y2="383.4256"/><line style="stroke:#000000;stroke-width:0.5;" x1="1544.93" x2="1673.4788" y1="391.4256" y2="391.4256"/><ellipse cx="1554.93" cy="405.0741" fill="#84BE84" rx="3" ry="3" style="stroke:#038048;stroke-width:1;"/><text fill="#000000" font-family="sans-serif" font-size="14" lengthAdjust="spacing" textLength="104.5488" x="1563.93" y="408.4207">floatOnWater()</text></g><!--class Boat--><g class="entity" data-entity="Boat" data-source-line="151" data-uid="ent0033" id="entity_Boat"><rect fill="#FFE0CC" height="105.1563" rx="2.5" ry="2.5" style="stroke:#000000;stroke-width:0.5;" width="177.2314" x="1615.59" y="475.72"/><ellipse cx="1658.2514" cy="495.8528" fill="#ADD1B2" rx="11" ry="11" style="stroke:#181818;stroke-width:1;"/><path d="M1661.2201,501.4934 Q1660.642,501.7903 1660.0014,501.9309 Q1659.3608,502.0872 1658.6576,502.0872 Q1656.1576,502.0872 1654.8295,500.4466 Q1653.517,498.7903 1653.517,495.6653 Q1653.517,492.5403 1654.8295,490.8841 Q1656.1576,489.2278 1658.6576,489.2278 Q1659.3608,489.2278 1660.0014,489.3841 Q1660.6576,489.5403 1661.2201,489.8372 L1661.2201,492.5559 Q1660.5951,491.9778 1660.0014,491.7122 Q1659.4076,491.4309 1658.7826,491.4309 Q1657.4389,491.4309 1656.7514,492.5091 Q1656.0639,493.5716 1656.0639,495.6653 Q1656.0639,497.7591 1656.7514,498.8372 Q1657.4389,499.8997 1658.7826,499.8997 Q1659.4076,499.8997 1660.0014,499.6341 Q1660.5951,499.3528 1661.2201,498.7747 L1661.2201,501.4934 Z " fill="#000000"/><text fill="#000000" font-family="sans-serif" font-size="12" font-style="italic" lengthAdjust="spacing" textLength="87.7617" x="1676.3983" y="491.8587">«WaterBased»</text><text fill="#000000" font-family="sans-serif" font-size="14" lengthAdjust="spacing" textLength="32.2383" x="1704.1601" y="507.6839">Boat</text><line style="stroke:#000000;stroke-width:0.5;" x1="1616.59" x2="1791.8214" y1="515.9856" y2="515.9856"/><rect fill="none" height="6" style="stroke:#C82930;stroke-width:1;" width="6" x="1623.59" y="526.6341"/><text fill="#000000" font-family="sans-serif" font-size="14" lengthAdjust="spacing" textLength="151.2314" x="1635.59" y="532.9807">displacement: double</text><line style="stroke:#000000;stroke-width:0.5;" x1="1616.59" x2="1791.8214" y1="540.2825" y2="540.2825"/><ellipse cx="1626.59" cy="553.9309" fill="#84BE84" rx="3" ry="3" style="stroke:#038048;stroke-width:1;"/><text fill="#000000" font-family="sans-serif" font-size="14" lengthAdjust="spacing" textLength="104.5488" x="1635.59" y="557.2776">floatOnWater()</text><polygon fill="#FFFF44" points="1626.59,565.2278,1630.59,569.2278,1626.59,573.2278,1622.59,569.2278" style="stroke:#B38D22;stroke-width:1;"/><text fill="#000000" font-family="sans-serif" font-size="14" lengthAdjust="spacing" textLength="124.8037" x="1635.59" y="573.5745">printSpecificInfo()</text></g><!--class Ship--><g class="entity" data-entity="Ship" data-source-line="158" data-uid="ent0035" id="entity_Ship"><rect fill="#FFE0CC" height="105.1563" rx="2.5" ry="2.5" style="stroke:#000000;stroke-width:0.5;" width="150.8037" x="1827.8" y="475.72"/><ellipse cx="1858.5689" cy="495.8528" fill="#ADD1B2" rx="11" ry="11" style="stroke:#181818;stroke-width:1;"/><path d="M1861.5376,501.4934 Q1860.9595,501.7903 1860.3189,501.9309 Q1859.6783,502.0872 1858.9751,502.0872 Q1856.4751,502.0872 1855.147,500.4466 Q1853.8345,498.7903 1853.8345,495.6653 Q1853.8345,492.5403 1855.147,490.8841 Q1856.4751,489.2278 1858.9751,489.2278 Q1859.6783,489.2278 1860.3189,489.3841 Q1860.9751,489.5403 1861.5376,489.8372 L1861.5376,492.5559 Q1860.9126,491.9778 1860.3189,491.7122 Q1859.7251,491.4309 1859.1001,491.4309 Q1857.7564,491.4309 1857.0689,492.5091 Q1856.3814,493.5716 1856.3814,495.6653 Q1856.3814,497.7591 1857.0689,498.8372 Q1857.7564,499.8997 1859.1001,499.8997 Q1859.7251,499.8997 1860.3189,499.6341 Q1860.9126,499.3528 1861.5376,498.7747 L1861.5376,501.4934 Z " fill="#000000"/><text fill="#000000" font-family="sans-serif" font-size="12" font-style="italic" lengthAdjust="spacing" textLength="87.7617" x="1874.0731" y="491.8587">«WaterBased»</text><text fill="#000000" font-family="sans-serif" font-size="14" lengthAdjust="spacing" textLength="30.5361" x="1902.6859" y="507.6839">Ship</text><line style="stroke:#000000;stroke-width:0.5;" x1="1828.8" x2="1977.6037" y1="515.9856" y2="515.9856"/><rect fill="none" height="6" style="stroke:#C82930;stroke-width:1;" width="6" x="1835.8" y="526.6341"/><text fill="#000000" font-family="sans-serif" font-size="14" lengthAdjust="spacing" textLength="114.7617" x="1847.8" y="532.9807">tonnage: double</text><line style="stroke:#000000;stroke-width:0.5;" x1="1828.8" x2="1977.6037" y1="540.2825" y2="540.2825"/><ellipse cx="1838.8" cy="553.9309" fill="#84BE84" rx="3" ry="3" style="stroke:#038048;stroke-width:1;"/><text fill="#000000" font-family="sans-serif" font-size="14" lengthAdjust="spacing" textLength="104.5488" x="1847.8" y="557.2776">floatOnWater()</text><polygon fill="#FFFF44" points="1838.8,565.2278,1842.8,569.2278,1838.8,573.2278,1834.8,569.2278" style="stroke:#B38D22;stroke-width:1;"/><text fill="#000000" font-family="sans-serif" font-size="14" lengthAdjust="spacing" textLength="124.8037" x="1847.8" y="573.5745">printSpecificInfo()</text></g><!--reverse link Vehicles to Flying--><g class="link" data-entity-1="Vehicles" data-entity-2="Flying" data-source-line="73" data-uid="lnk9" id="link_Vehicles_Flying"><path codeLine="73" d="M838.2766,194.8594 C692.5766,247.9194 468.31,329.6 373.87,363.99" fill="none" id="Vehicles-backto-Flying" style="stroke:#181818;stroke-width:1;"/><polygon fill="none" points="855.19,188.7,836.2235,189.2216,840.3298,200.4972,855.19,188.7" style="stroke:#181818;stroke-width:1;"/></g><!--link Flying to Flyable--><g class="link" data-entity-1="Flying" data-entity-2="Flyable" data-source-line="74" data-uid="lnk10" id="link_Flying_Flyable"><path codeLine="74" d="M294.7,394.77 C250.83,411.44 178.64,441.13 121.2,475.72 C113.36,480.44 119.8042,475.2158 112.2342,480.8558" fill="none" id="Flying-to-Flyable" style="stroke:#181818;stroke-width:1;stroke-dasharray:7,7;"/><polygon fill="none" points="97.8,491.61,115.819,485.6672,108.6495,476.0444,97.8,491.61" style="stroke:#181818;stroke-width:1;"/></g><!--reverse link Flying to Plane--><g class="link" data-entity-1="Flying" data-entity-2="Plane" data-source-line="81" data-uid="lnk12" id="link_Flying_Plane"><path codeLine="81" d="M299.2401,430.7727 C286.8601,448.5927 281.9,455.74 268.24,475.41" fill="none" id="Flying-backto-Plane" style="stroke:#181818;stroke-width:1;"/><polygon fill="none" points="309.51,415.99,294.3125,427.3494,304.1676,434.196,309.51,415.99" style="stroke:#181818;stroke-width:1;"/></g><!--reverse link Flying to Helicopter--><g class="link" data-entity-1="Flying" data-entity-2="Helicopter" data-source-line="88" data-uid="lnk14" id="link_Flying_Helicopter"><path codeLine="88" d="M369.1699,430.7727 C381.5499,448.5927 386.51,455.74 400.17,475.41" fill="none" id="Flying-backto-Helicopter" style="stroke:#181818;stroke-width:1;"/><polygon fill="none" points="358.9,415.99,364.2424,434.196,374.0975,427.3494,358.9,415.99" style="stroke:#181818;stroke-width:1;"/></g><!--reverse link Vehicles to GroundBased--><g class="link" data-entity-1="Vehicles" data-entity-2="GroundBased" data-source-line="96" data-uid="lnk16" id="link_Vehicles_GroundBased"><path codeLine="96" d="M972.2,301.59 C972.2,323.54 972.2,326.44 972.2,343" fill="none" id="Vehicles-backto-GroundBased" style="stroke:#181818;stroke-width:1;"/><polygon fill="none" points="972.2,283.59,966.2,301.59,978.2,301.59,972.2,283.59" style="stroke:#181818;stroke-width:1;"/></g><!--link GroundBased to Drivable--><g class="link" data-entity-1="GroundBased" data-entity-2="Drivable" data-source-line="97" data-uid="lnk17" id="link_GroundBased_Drivable"><path codeLine="97" d="M908.52,392.77 C843.74,406.94 741.71,433.77 661.2,475.72 C652.69,480.15 658.6889,475.0767 650.7489,480.9067" fill="none" id="GroundBased-to-Drivable" style="stroke:#181818;stroke-width:1;stroke-dasharray:7,7;"/><polygon fill="none" points="636.24,491.56,654.3,485.743,647.1978,476.0704,636.24,491.56" style="stroke:#181818;stroke-width:1;"/></g><!--reverse link GroundBased to Car--><g class="link" data-entity-1="GroundBased" data-entity-2="Car" data-source-line="104" data-uid="lnk19" id="link_GroundBased_Car"><path codeLine="104" d="M904.2238,426.2302 C877.3838,444.3202 859.25,456.53 829.8,476.37" fill="none" id="GroundBased-backto-Car" style="stroke:#181818;stroke-width:1;"/><polygon fill="none" points="919.15,416.17,900.8704,421.2548,907.5772,431.2056,919.15,416.17" style="stroke:#181818;stroke-width:1;"/></g><!--reverse link GroundBased to Bike--><g class="link" data-entity-1="GroundBased" data-entity-2="Bike" data-source-line="111" data-uid="lnk21" id="link_GroundBased_Bike"><path codeLine="111" d="M972.2,433.99 C972.2,451.81 972.2,455.74 972.2,475.41" fill="none" id="GroundBased-backto-Bike" style="stroke:#181818;stroke-width:1;"/><polygon fill="none" points="972.2,415.99,966.2,433.99,978.2,433.99,972.2,415.99" style="stroke:#181818;stroke-width:1;"/></g><!--reverse link GroundBased to Bicycle--><g class="link" data-entity-1="GroundBased" data-entity-2="Bicycle" data-source-line="118" data-uid="lnk23" id="link_GroundBased_Bicycle"><path codeLine="118" d="M1040.9716,426.1326 C1067.6816,443.8826 1085.45,455.69 1114.88,475.25" fill="none" id="GroundBased-backto-Bicycle" style="stroke:#181818;stroke-width:1;"/><polygon fill="none" points="1025.98,416.17,1037.6507,431.1298,1044.2924,421.1354,1025.98,416.17" style="stroke:#181818;stroke-width:1;"/></g><!--reverse link GroundBased to RailsBased--><g class="link" data-entity-1="GroundBased" data-entity-2="RailsBased" data-source-line="126" data-uid="lnk25" id="link_GroundBased_RailsBased"><path codeLine="126" d="M1053.427,396.9492 C1119.127,411.4492 1205.91,434.78 1289.2,475.72 C1298.31,480.19 1307.51,485.79 1316.14,491.63" fill="none" id="GroundBased-backto-RailsBased" style="stroke:#181818;stroke-width:1;"/><polygon fill="none" points="1035.85,393.07,1052.1339,402.8083,1054.7201,391.0902,1035.85,393.07" style="stroke:#181818;stroke-width:1;"/></g><!--reverse link RailsBased to Train--><g class="link" data-entity-1="RailsBased" data-entity-2="Train" data-source-line="133" data-uid="lnk27" id="link_RailsBased_Train"><path codeLine="133" d="M1332.1108,580.3405 C1319.5108,602.4605 1311.96,615.69 1297.88,640.39" fill="none" id="RailsBased-backto-Train" style="stroke:#181818;stroke-width:1;"/><polygon fill="none" points="1341.02,564.7,1326.8973,577.3708,1337.3243,583.3103,1341.02,564.7" style="stroke:#181818;stroke-width:1;"/></g><!--reverse link RailsBased to Subway--><g class="link" data-entity-1="RailsBased" data-entity-2="Subway" data-source-line="140" data-uid="lnk29" id="link_RailsBased_Subway"><path codeLine="140" d="M1390.2945,580.3375 C1402.9045,602.4575 1410.45,615.69 1424.53,640.39" fill="none" id="RailsBased-backto-Subway" style="stroke:#181818;stroke-width:1;"/><polygon fill="none" points="1381.38,564.7,1385.082,583.309,1395.507,577.366,1381.38,564.7" style="stroke:#181818;stroke-width:1;"/></g><!--reverse link Vehicles to WaterBased--><g class="link" data-entity-1="Vehicles" data-entity-2="WaterBased" data-source-line="148" data-uid="lnk31" id="link_Vehicles_WaterBased"><path codeLine="148" d="M1104.3909,282.4487 C1110.2009,286.3187 1101.16,279.93 1107.2,283.16 C1249.83,359.29 1443.81,375.31 1543.73,378.22" fill="none" id="Vehicles-backto-WaterBased" style="stroke:#181818;stroke-width:1;"/><polygon fill="none" points="1089.41,272.47,1101.0647,287.4423,1107.7171,277.455,1089.41,272.47" style="stroke:#181818;stroke-width:1;"/></g><!--link WaterBased to Floatable--><g class="link" data-entity-1="WaterBased" data-entity-2="Floatable" data-source-line="149" data-uid="lnk32" id="link_WaterBased_Floatable"><path codeLine="149" d="M1586.45,415.99 C1571.78,438.91 1562.4739,453.4497 1547.7839,476.3997" fill="none" id="WaterBased-to-Floatable" style="stroke:#181818;stroke-width:1;stroke-dasharray:7,7;"/><polygon fill="none" points="1538.08,491.56,1552.8373,479.6343,1542.7305,473.1651,1538.08,491.56" style="stroke:#181818;stroke-width:1;"/></g><!--reverse link WaterBased to Boat--><g class="link" data-entity-1="WaterBased" data-entity-2="Boat" data-source-line="156" data-uid="lnk34" id="link_WaterBased_Boat"><path codeLine="156" d="M1641.9782,431.1025 C1653.5082,448.9225 1657.92,455.74 1670.64,475.41" fill="none" id="WaterBased-backto-Boat" style="stroke:#181818;stroke-width:1;"/><polygon fill="none" points="1632.2,415.99,1636.9407,434.3619,1647.0157,427.8431,1632.2,415.99" style="stroke:#181818;stroke-width:1;"/></g><!--reverse link WaterBased to Ship--><g class="link" data-entity-1="WaterBased" data-entity-2="Ship" data-source-line="163" data-uid="lnk36" id="link_WaterBased_Ship"><path codeLine="163" d="M1691.227,417.8467 C1730.747,436.1267 1765.55,452.78 1810.2,475.72 C1815.87,478.63 1821.7,481.69 1827.54,484.81" fill="none" id="WaterBased-backto-Ship" style="stroke:#181818;stroke-width:1;"/><polygon fill="none" points="1674.89,410.29,1688.7081,423.2923,1693.7459,412.401,1674.89,410.29" style="stroke:#181818;stroke-width:1;"/></g><!--SRC=[hLPBJnH14BxFh-Z40xiXIxYoGGue8WV52D5pRq_Fqc6sPp8pY1iX0MBqu45H38W1aOi7DI4e4KJWBzJy8skcvz7xcDtmc6IpFLLVrLTLNLtJ0-HsqMCC4DY1Wt0rN0jNu1nEu2ySa_0L7C9Hk8Q2GqGKM_lpGhhKemt2REhxv8L1y1cdRBxkEGlIlEFOZZSwUizk2baV6oEt6BCinhgZ9kENSUfpKq7vi6LrXpwcmlOpvCX8vBOxyYaDk9SXBOiF5z5FIKHQb745P6naH04Tp-HU328r6wsCPQDdKR2aMt26rJiALyANS0GdMDutFKr4oasmLBHcSz8QZwhhe6KtI-M8FiVVzSIpOWCJjRpTv9xjqA0N2QgdPLmuPTedsIzHelXx3SVXAfnYmcUuUjlJZCk51faMzcpJvGanhCD7xCLDBDwE4cpWSXE5d-674lp4vKVOXdtOGzKtN7_5jotufDGVSBaUgpRGqVTKl8suFTX5REPv1qNxKMfn71EoBYJNGzc0z_1LBVSG-Yxct4AXvbOFPZUssC88tk6x5d56rAU6wt00VwBZ5hw14uA7y3G-bAla2PyJpEP-JmUqvWSUPK5o2bER99kAf0rU9JE1XuTGIHnL-Mgw1KhAipfKjPeeNOC-dt4vDwiaQfawzrIpr7dm4BsNoYt-1tqU99vBoNyvmwUASYjxP9EJbl9bRgcfonqHHlOFaY1BIOovQQOfjoNWOj31bBISaWBVYWM8PS8IJ5CC1exAKCkrxxwgmKVYuNg0Cs4LBk0SfyBQPROpSQADqRPnaEttw5Abai2Dn6feQ6ai7Ig6eHm-igdadVugBYgn1t3OKPSo4JIh16kXSnLMQ3dbYqE82LAs-zmMp75ncdIXn85gSl-gFBdhVXkXVLkkkHkwf_PlLiVKRTqP3MpeRk8zIWTvMhOxr2lmNp4TnzDhblBrg5fBr54iw3vb6XVpl8XgZleJDcVOxaoTjogfEOxDgRmwTSINSxCcitlHJt8Q9Ni3h35JlqR9RnQa5BK7_COF-J5S4FoeHIFw2FxXwXn-mNcNHeA3ycLwIIDhkzDqT597FZayhUMiHuNixgYoIEkEl6JFwD55ZB7_b6nceRP8cmLiVa03SMq-HT5lm_8BtZKFjkQexTfOT35gFTsvYQ6vIkPlSkFAsXxVkxDKJE6xUCla3Iw3AZ6TXSYi6t-FIkgfnBsFXjd6pGctW3fmfAHrVbEi4TD_]--></g></svg>